<?xml version="1.0" encoding="UTF-8"?>
<svg xmlns="http://www.w3.org/2000/svg" viewBox="0 0 250 250">
  <defs>
    <style>
      .cls-1 {
        font-family: Nunito-ExtraBold, Nunito;
        font-variation-settings: 'wght' 800;
        font-weight: 700;
      }

      .cls-2 {
        font-size: 36px;
      }

      .cls-3 {
        fill: #672b00;
      }

      .cls-3, .cls-4, .cls-5, .cls-6, .cls-7 {
        stroke-width: 0px;
      }

      .cls-5 {
        fill: #014236;
      }

      .cls-6 {
        fill: #9c5512;
      }

      .cls-8 {
        font-family: Nunito-Medium, Nunito;
        font-variation-settings: 'wght' 500;
        font-weight: 500;
      }

      .cls-9 {
        font-family: Nunito-SemiBold, Nunito;
        font-size: 16px;
        font-variation-settings: 'wght' 600;
        font-weight: 600;
      }

      .cls-7 {
        fill: #c69c6d;
      }
    </style>
  </defs>
  <g id="pages">
    <path class="cls-7" d="M145.5,141c3.67-5.34,11.8-15.63,26-23,12.83-6.66,24.64-7.83,31-8-7.42,1.19-18.23,3.8-30,10-12.94,6.81-21.74,15.17-27,21Z"/>
    <path class="cls-4" d="M144.5,144c4.99-6.09,14.02-15.55,28-23,12.28-6.55,23.59-8.99,31-10,.33,2,.67,4,1,6-8.2,1.44-18.6,4.06-30,9-12.96,5.62-22.95,12.39-30,18Z"/>
    <path class="cls-7" d="M138.5,158c4.69-6.65,14.75-19.03,32-28,15.16-7.88,29.1-9.61,37-10,.33,1,.67,2,1,3-8.72.88-21.7,3.25-36,10-16.57,7.83-27.68,18.14-34,25Z"/>
    <path class="cls-7" d="M142.5,157c7.96-5.69,19.68-12.76,35-18,13.66-4.67,25.85-6.4,35-7-2.33,1-4.67,2-7,3-6.62.68-14.04,1.9-22,4-17.4,4.59-31.14,11.72-41,18Z"/>
    <path class="cls-4" d="M145.5,153c6.62-6.55,18.85-16.83,37-23,10.44-3.55,19.85-4.71,27-5,.33,1.67.67,3.33,1,5-7.79.5-17.38,1.84-28,5-16.3,4.86-28.71,12.15-37,18Z"/>
    <path class="cls-4" d="M137.5,163c7.26-5.87,18.59-13.59,34-19,10.73-3.77,20.42-5.35,28-6-3.67,1.67-7.33,3.33-11,5-4.93.75-11.16,2.18-18,5-8.86,3.65-15.5,8.29-20,12-2.31,1.28-5.73,2.72-10,3-1.07.07-2.07.06-3,0Z"/>
    <path class="cls-7" d="M105.81,141.45c-3.67-5.34-11.8-15.63-26-23-12.83-6.66-24.64-7.83-31-8,7.42,1.19,18.23,3.8,30,10,12.94,6.81,21.74,15.17,27,21Z"/>
    <path class="cls-4" d="M106.81,144.45c-4.99-6.09-14.02-15.55-28-23-12.28-6.55-23.59-8.99-31-10-.33,2-.67,4-1,6,8.2,1.44,18.6,4.06,30,9,12.96,5.62,22.95,12.39,30,18Z"/>
    <path class="cls-7" d="M112.81,158.45c-4.69-6.65-14.75-19.03-32-28-15.16-7.88-29.1-9.61-37-10-.33,1-.67,2-1,3,8.72.88,21.7,3.25,36,10,16.57,7.83,27.68,18.14,34,25Z"/>
    <path class="cls-7" d="M108.81,157.45c-7.96-5.69-19.68-12.76-35-18-13.66-4.67-25.85-6.4-35-7,2.33,1,4.67,2,7,3,6.62.68,14.04,1.9,22,4,17.4,4.59,31.14,11.72,41,18Z"/>
    <path class="cls-4" d="M105.81,153.45c-6.62-6.55-18.85-16.83-37-23-10.44-3.55-19.85-4.71-27-5-.33,1.67-.67,3.33-1,5,7.79.5,17.38,1.84,28,5,16.3,4.86,28.71,12.15,37,18Z"/>
    <path class="cls-4" d="M113.81,163.45c-7.26-5.87-18.59-13.59-34-19-10.73-3.77-20.42-5.35-28-6,3.67,1.67,7.33,3.33,11,5,4.93.75,11.16,2.18,18,5,8.86,3.65,15.5,8.29,20,12,2.31,1.28,5.73,2.72,10,3,1.07.07,2.07.06,3,0Z"/>
  </g>
  <g id="big-branch-2">
    <path class="cls-7" d="M122.15,109.38c-2.4,2.8-5.26,5.45-7.82,8.29-.15-8.24-1.07-14.52-5.83-18.67-1.98-1.73-4.21-2.72-6.27-3.3.1-.53.19-1.1.27-1.7-.1-.11-1-1.03-2.34-2,6.72.14,10.82,2.17,13.34,4,4.69,3.42,5.68,7.51,8.65,13.38Z"/>
    <path class="cls-3" d="M139.77,130.81c-3.71,4.03-7.65,8.7-10.65,15.72-1.99,4.64-3.06,9.18-3.6,13.34-.01-.01-.02-.03-.02-.04-.02.06-.05.12-.08.17-.23.46-.51.87-.85,1.22-.76.79-1.77,1.36-3,1.73.4-4.84,1.47-10.32,3.88-15.95,3.57-8.37,8.48-13.39,12.75-17.98.56.53,1.07,1.08,1.57,1.79Z"/>
    <path class="cls-6" d="M142.32,143.44c-.57,4.96-2.6,11.3-7.01,19.45-.09.17-.18.35-.28.52-.33.02-.66.03-.98.04-1.04.03-2-.02-2.88-.14-1.08-.15-2.04-.4-2.86-.78-.48-.23-.92-.5-1.31-.81-.19-.14-.36-.3-.53-.46.02-.13.03-.26.05-.39.54-4.16,1.61-8.7,3.6-13.34,2.94-6.87,6.77-11.49,10.41-15.46,1.46,2.68,2.38,6.32,1.79,11.37Z"/>
  </g>
  <g id="big-branch-1">
    <path class="cls-6" d="M146.39,111c-.7,7.63-4.58,12.08-9.19,17.02-4.27,4.59-9.18,9.61-12.75,17.98-2.62,6.12-3.66,12.07-3.96,17.21-.21.04-.43.08-.66.11-.49.06-1.01.11-1.55.12-.56-1.66-1.17-3.48-1.81-5.44-.37-1.13-.73-2.21-1.07-3.25v-.47c0-.4,0-.81.02-1.23.01-.4.02-.8.05-1.21,0-.27.02-.54.05-.81.01-.27.03-.55.06-.83,0-.04,0-.07.01-.11.03-.36.07-.72.11-1.09.04-.39.09-.78.15-1.17.02-.21.06-.42.09-.63.05-.36.12-.73.19-1.1.17-.96.38-1.93.64-2.92,0-.03.01-.05.02-.08h0c.15-.58.31-1.16.49-1.73.06-.2.12-.41.19-.61.07-.22.14-.44.22-.67.31-.92.67-1.84,1.07-2.78.17-.42.36-.83.55-1.25.25-.53.5-1.05.76-1.55.2-.39.41-.77.62-1.14.2-.37.41-.73.63-1.08.13-.23.27-.45.41-.67.07-.12.14-.24.23-.36.15-.25.31-.5.48-.74.24-.37.49-.73.74-1.07.45-.63.91-1.24,1.37-1.82,1.46-1.82,2.97-3.44,4.45-4.94.49-.5.98-.98,1.46-1.45.67-.66,1.32-1.3,1.96-1.93.54-.53,1.06-1.06,1.57-1.58.05-.06.11-.12.17-.18.29-.3.57-.59.84-.89.29-.32.58-.64.85-.96.2-.23.4-.46.58-.69.16-.2.32-.4.48-.61.16-.21.32-.42.47-.64.39-.55.75-1.1,1.07-1.68.02-.03.04-.06.06-.1.14-.25.28-.51.4-.77.15-.29.28-.59.41-.89,0-.01,0-.02.01-.03.1-.26.2-.51.29-.78.12-.36.23-.73.33-1.11.09-.33.16-.67.22-1.01.06-.35.11-.7.15-1.06.04-.36.07-.72.08-1.1.21-6.08-3.01-11.44-5.9-16.23-5.93-9.85-11.49-10.43-12-16-.86-9.31,13.89-16.01,12-20-.1-.22-.25-.41-.43-.58-.71-.75-2.13-.93-4.22-2.05-1.59-.85-2.46-1.53-3.41-2.37-2.13-1.9-3.07-4.03-3.94-6-.2-.46-.8-1.83-1.3-3.87.87.43,1.56.72,1.93.87.64-.46,1.49-1.12,2.38-2.03.79,2.4,1.93,3.97,2.99,5.03,4,4,9.31,3.29,11.91,8,1.51,2.73,1.17,5.59,1,6.96v.04c-.13,1.06-.38,2.03-.72,2.91-2.66,7.15-10.96,9.1-11.25,15.09-.06,1.15.2,2.12.7,3,.6,1.11,1.57,2.1,2.75,3.19,1.59,1.48,3.55,3.15,5.54,5.55.61.74,1.23,1.55,1.84,2.45.38.57.76,1.17,1.14,1.81.34.58,2.18,3.75,3.55,8.17.31,1,.6,2.07.83,3.18.58,2.67.88,5.63.6,8.65Z"/>
    <path class="cls-7" d="M138.4,105.23c-.25,6.91-4.77,10.9-9.94,16.01-3.85,3.78-8.06,8.17-11.15,14.82-1.11,2.39-1.93,4.75-2.52,7.03-.74,2.85-1.12,5.58-1.28,8.08-.89-1.55-1.83-3.09-2.8-4.63-2.12-6.46-3.19-9.87-3.23-10.54-.48-6.84,2.81-11.83,6.85-16.33,2.56-2.84,5.42-5.49,7.82-8.29,2.95-3.44,5.2-7.11,5.33-11.64h0c.03-.57.01-1.14-.04-1.74-.14-1.6-.51-3.04-1.06-4.34h0c-3.1-7.56-11.67-10.84-11.98-17.93-.04-.55-.01-1.13.07-1.73.12-.85.34-1.67.65-2.46,1.22-3.14,3.83-5.81,6.66-8.14,1.14-.94,2.32-1.82,3.46-2.66,4.28-3.12,8-5.56,7.18-7.74-.08-.23-.2-.42-.35-.58.18.17.33.36.43.58,1.89,3.99-12.86,10.69-12,20,.51,5.57,6.07,6.15,12,16,2.89,4.79,6.11,10.15,5.9,16.23Z"/>
    <text class="cls-9" transform="translate(35.21 230.99)"><tspan x="0" y="0">Cultivate Your Collection</tspan></text>
  </g>
  <g id="little-branches">
    <path class="cls-7" d="M113.47,74c-.08.6-.11,1.18-.07,1.73-3.11.96-7.6,1.84-12.9,1.27-8.73-.94-14.98-5.34-18.43-8.44.93-.17,1.74-.37,2.43-.56-.15-.61-.41-1.57-.78-2.73,2.93,2.72,8.23,6.57,15.78,7.73,6.34.98,11.58-.36,14.62-1.46-.31.79-.53,1.61-.65,2.46Z"/>
    <path class="cls-7" d="M125.24,59.74c-1.14.84-2.32,1.72-3.46,2.66-.83-.68-1.94-1.53-3.28-2.4-3.7-2.41-6.63-3.4-8-4-2.62-1.15-5.92-3.68-8.97-9.77.62-.06,1.28-.13,1.97-.23.13-.43.26-.91.38-1.43,2.59,4.31,5.39,6.36,7.62,7.43,2.58,1.25,5.15,1.57,9,4,2.12,1.33,3.7,2.73,4.74,3.74Z"/>
    <path class="cls-3" d="M155.31,51.4c-.66,1.15-1.58,2.4-2.81,3.6-3.81,3.71-8.4,4.66-10.81,4.91.34-.88.59-1.85.72-2.91v-.04c1.49-.12,3.77-.54,6.09-1.96,2.52-1.55,4.03-3.64,4.92-5.33.02.43.05.87.08,1.33.46.13,1.08.28,1.81.4Z"/>
    <path class="cls-3" d="M169.57,66.58c-2.48,1.91-5.49,3.58-9.07,4.42-8.35,1.96-13.59-2.02-20,1-2.76,1.29-5.45,3.75-7.61,8.19-.43-.3-1.05-.8-1.59-1.59-.42-.6-.66-1.17-.8-1.6.74-1.38,2.15-3.58,4.61-5.5.36-.29,2-1.6,4.39-2.5,6.49-2.44,11,.7,19-1,4.71-1,8.36-3.2,10.88-5.11-.31.95-.6,1.99-.88,3.11.12.07.49.29,1.07.58Z"/>
    <path class="cls-7" d="M126.48,99.73c-3.16-3.78-9.65-10.3-19.98-13.73-6.75-2.24-12.76-2.38-16.79-2.1,1.07-.99,1.69-1.77,1.79-1.9-.24-.42-.48-.81-.73-1.19,9.14-.54,16.24,1.79,19.73,3.19,6.77,2.71,11.67,6.54,14.88,9.65h0c.55,1.31.92,2.75,1.06,4.35.05.6.07,1.17.04,1.73Z"/>
    <path class="cls-3" d="M154.22,98.19c-.84.16-1.76.41-2.72.81-2.16.9-3.69,2.23-4.71,3.35-.23-1.11-.52-2.18-.83-3.18,1.01-1.08,2.5-2.31,4.54-3.17,1.27-.53,2.47-.8,3.51-.93-.25.43-.42.76-.51.93.15.66.37,1.43.72,2.19Z"/>
    <path class="cls-3" d="M162.5,83c.34.32.84.76,1.48,1.25-3.08,1.32-5.63,1.68-7.48,1.75-4.12.16-6.42-1.08-10,0-2.31.69-4.04,2.02-5.23,3.19-.61-.9-1.23-1.71-1.84-2.45,1.76-2.17,3.56-3.21,5.07-3.74,4.04-1.4,6.79.65,12,0,3.41-.43,6.12-1.79,8-3,.01.01.01.02.02.03-.68.86-1.35,1.84-2.02,2.97Z"/>
  </g>
  <g id="leaves">
    <path class="cls-5" d="M150.5,21c-.24,1.39-.59,3.47-1,6-1.28,7.86-1.32,8.81-2,10-.86,1.5-3.43,4.63-12.54,4.98.13-.08.26-.16.36-.24.57-.39.95-.64,1.04-.7.63-.43,1.32-.97,2.07-1.7.22-.2.45-.44.69-.67.14-.16.28-.31.41-.47.97-1.05,1.99-2.38,3.12-4.05.52-.8,1.05-1.65,1.6-2.62.66-1.12,1.34-2.39,2.06-3.78-.83,1.37-1.66,2.6-2.46,3.7-.69.98-1.38,1.86-2.04,2.66-1.16,1.41-2.27,2.56-3.28,3.49-.09.09-.18.17-.27.25-.21.2-.43.38-.64.57-.39.33-.74.62-1.1.89-.62.49-1.3.99-2.09,1.59-.01.01-.03.02-.04.03-.91-8.98,1.04-12.46,3.11-13.93,1.3-.92,2.6-1.03,7-3,2.61-1.17,4.67-2.26,6-3Z"/>
    <path class="cls-5" d="M102.88,43.57c-.07.29-.14.57-.21.83-.28-.42-.52-.81-.75-1.19-.97-1.6-1.98-3.56-4.03-6.42-1.85-2.6-3.67-4.53-4.92-5.77.71.88,1.8,2.28,2.98,4.07,1.6,2.42,4.15,7.42,4.32,7.77.34.67.8,1.42,1.41,2.24-.4.06-.78.09-1.15.13-8.76.83-11.81-1.65-13.03-3.23-1.31-1.7-1.24-3.32-3-11-.77-3.37-1.49-6.13-2-8,1.9.64,4.68,1.64,8,3,6.26,2.57,9.43,3.9,11,6,2.62,3.5,2.15,8.3,1.38,11.57Z"/>
    <path class="cls-5" d="M174.5,29c-.21,2.17-.7,5.36-2,9-1.66,4.63-3.11,8.7-7,11-3.24,1.92-6.8,1.8-9.19,1.4-.43-.07-.83-.15-1.17-.24.04-.04.08-.07.11-.11l.26-.26c.2-.21.41-.4.61-.6.37-.35.71-.66,1.05-.95.6-.52,1.25-1.05,2.01-1.69.01-.01.03-.02.04-.03.38-.33.78-.68,1.22-1.08.72-.65,1.51-1.4,2.41-2.31,2.28-2.29,3.88-4.45,4.89-5.9-.76.86-1.97,2.18-3.53,3.67-1.41,1.34-3.9,3.29-5.49,4.5-.05.03-.09.07-.13.1-.12.08-.25.17-.34.26-.55.41-.92.68-1.01.75-.6.46-1.26,1.03-1.98,1.8-.21.21-.42.46-.65.71-.05.06-.1.13-.16.19l-.03-.54c-.5-9.51,1.73-13.17,4.08-14.67,1.69-1.07,3.32-.96,10-3,2.54-.78,4.61-1.5,6-2Z"/>
    <path class="cls-5" d="M129.36,29.98c-.94,2.61-2.44,4.59-3.85,5.99-.73.75-1.43,1.32-2.01,1.76-.91-4.62-.92-8.09-.69-10.61.17-1.86.52-4.04.56-7.56.04-3.19-.28-5.82-.56-7.56.06,1.13.11,2.9,0,5.04-.14,2.9-1.05,8.44-1.12,8.82-.39,2.42-.31,6.16,1.47,12.12,0,.01-.02.01-.03.02-.37-.15-1.06-.44-1.93-.87-3.26-1.6-9.04-5.16-9.66-10.56-.36-3.18,1.51-6.47,5.26-13.05,2.08-3.67,4.04-6.56,5.43-8.52,1.78,2.09,4.26,5.51,5.94,10.22,1.38,3.88,3.23,9.09,1.19,14.76Z"/>
    <path class="cls-5" d="M83.47,67.01c-.68.19-1.48.38-2.4.55-1.81.34-4.04.57-6.57.44-2.25-.11-5.45-.27-9-2-3.74-1.82-5.87-4.4-8-7-1.55-1.89-3.41-4.53-5-8,1.88-.33,4.64-.74,8-1,4.81-.37,8.42-.65,11,0,6.3,1.6,9.71,9.59,11.22,14.27.23.73.42,1.39.57,1.92-1.65-.77-3.04-1.55-4.2-2.29-.37-.23-.7-.46-1.02-.68-.42-.29-.79-.57-1.15-.84-1.5-1.14-3.16-2.6-6.15-4.53-2.7-1.75-5.13-2.88-6.77-3.58.99.56,2.54,1.47,4.31,2.71,2.39,1.67,6.63,5.42,6.91,5.68.57.5,1.27,1.03,2.15,1.58.27.16.55.32.84.49,1.36.75,3.07,1.52,5.26,2.28Z"/>
    <path class="cls-5" d="M107.59,65.22c.28.14.57.28.88.42-3.01,1.11-9.72,3.01-14.49-.4-1.93-1.38-3.33-3.48-5.17-6.23-2.11-3.16-3.47-6.02-4.31-8.01,1.78.53,4.46,1.23,7.76,1.78,3.9.65,5.33.52,6.9.89,2.88.69,6.59,3.15,10.11,11.07-.38-.2-.73-.4-1.07-.59-.44-.25-.83-.5-1.21-.74-1.59-1.01-3.37-2.33-6.51-4-2.83-1.52-5.35-2.45-7.04-3.01,1.03.48,2.65,1.25,4.52,2.34,2.52,1.47,7.05,4.85,7.36,5.09.6.45,1.35.92,2.27,1.39Z"/>
    <path class="cls-5" d="M168.5,51c-.57,1.29-1.38,3.36-2,6-.69,2.94-.51,3.92-1,5-.84,1.88-3.6,3.9-12.44,3.99.06-.03.13-.07.19-.11.26-.15.53-.33.81-.51.07-.05.13-.1.21-.14.1-.08.2-.15.3-.23,1.16-.81,2.45-1.89,3.92-3.28.67-.68,1.37-1.39,2.12-2.22.88-.95,1.82-2.04,2.83-3.25-1.11,1.16-2.19,2.18-3.2,3.09-.89.81-1.76,1.52-2.56,2.15-1.39,1.1-2.68,1.96-3.83,2.64-.05.03-.09.04-.13.08l-.32.18c-.25.15-.5.28-.75.42-.05.02-.09.05-.13.07.17-4.58,1.64-6.74,2.98-7.88,1.55-1.31,3.02-1.33,7-3,2.65-1.11,4.71-2.24,6-3Z"/>
    <path class="cls-5" d="M199.5,52c-.22,1.03-2.26,9.85-11,14-7.84,3.72-15.21.9-17.93-.42-.4-.2-.7-.37-.89-.48.3-.15.58-.3.86-.44,1.57-.81,3.01-1.41,4.26-1.86.06-.02.1-.02.15-.05l.35-.12c.27-.09.54-.17.81-.26.06-.01.1-.04.14-.05.44-.12.83-.23,1.22-.33.77-.2,1.59-.39,2.56-.62,0-.01.03,0,.04-.01.49-.13,1.01-.26,1.58-.42.93-.27,1.97-.59,3.18-1,3.06-1.04,5.46-2.26,7.01-3.11-1.06.43-2.74,1.07-4.8,1.72-1.85.57-4.95,1.21-6.91,1.59-.06,0-.12.02-.16.03-.15.01-.31.04-.43.08-.67.12-1.12.19-1.23.22-.69.13-1.47.34-2.37.66-.07.02-.14.04-.21.07-.28.1-.58.22-.89.35-.08.03-.15.07-.24.09-.11.06-.22.11-.33.17-1.3.57-2.77,1.38-4.48,2.47-.04.03-.09.06-.13.09.23-.88.47-1.71.72-2.48,2.41-7.61,5.51-10.14,8.12-10.89,2.92-.84,5.17.57,13,1,3.36.19,6.13.1,8,0Z"/>
    <path class="cls-5" d="M193.5,78c-1.11,1.61-3.02,3.96-6,6-1.94,1.33-6.6,4.53-13,4-4.33-.36-7.58-2.28-9.52-3.75-.39-.3-.74-.59-1.02-.83.05-.02.1-.03.15-.05.06-.01.1-.04.14-.05.44-.12.83-.23,1.22-.33.77-.2,1.59-.39,2.56-.62,0-.01.03,0,.04-.01.49-.13,1.01-.26,1.58-.42.93-.27,1.97-.59,3.18-1,3.06-1.04,5.46-2.26,7.01-3.11-1.06.43-2.74,1.07-4.8,1.72-1.85.57-4.95,1.21-6.91,1.59-.06,0-.12.02-.16.03-.15.01-.31.04-.43.08-.67.12-1.12.19-1.23.22-.66.12-1.4.32-2.25.62.48-.76.97-1.44,1.46-2.06,3.89-5,7.7-5.83,8.98-6.03,2.57-.4,5.71.4,12,2,2.92.74,5.33,1.47,7,2Z"/>
    <path class="cls-5" d="M174.5,106c-4.15-3.03-7.61-3.83-10-4-2.77-.2-4.92.39-7-1-1.09-.73-1.81-1.77-2.28-2.81-.2-.44-.36-.89-.49-1.31.3,0,.59,0,.87.01.38,0,.77.03,1.19.05.04,0,.09.01.14.01.05,0,.1,0,.15,0h.04c.21.03.41.04.61.06l.35.03s.08.01.15.02c1.23.13,2.68.37,4.29.75.29.07.58.15.89.22.67.17,1.4.37,2.15.6,1.21.38,2.53.82,3.94,1.36-1.34-.62-2.56-1.17-3.69-1.61-.92-.38-1.75-.71-2.54-1-.05-.01-.1-.03-.15-.05-1.8-.61-3.32-1.02-4.63-1.25-.11-.03-.23-.05-.34-.08-.09,0-.16-.02-.25-.03-.08-.01-.17-.03-.26-.04-.21-.03-.42-.07-.62-.09-.07-.01-.14-.01-.21-.02-.03,0-.08,0-.12,0-.78-.08-1.46-.11-2.05-.08.09-.18.22-.4.37-.67,1.02-1.72,3.34-4.97,6.49-5.07,3.57-.11,6.24,3.87,9,8,2.13,3.18,3.33,6.09,4,8Z"/>
    <path class="cls-5" d="M199.74,95.24c-2.44,4.93-7.51,7.97-12.85,7.73-5.83-.27-9.36-4.32-10.72-6.22h.04c.06,0,.11.01.16.01.06,0,.11,0,.15,0,.45.04.86.08,1.26.13.79.09,1.62.21,2.61.35.01,0,.02.01.04.01.5.05,1.03.12,1.62.18.97.09,2.05.16,3.33.22,3.23.14,5.91-.12,7.66-.35-1.14.01-2.94,0-5.1-.14-1.93-.14-5.05-.67-7.01-1.03-.06-.02-.12-.02-.16-.03-.15-.04-.31-.07-.43-.08-.67-.13-1.12-.23-1.23-.24-.66-.13-1.42-.21-2.32-.24-.04,0-.09,0-.13-.01-.07,0-.14-.01-.22-.01-.21-.01-.44,0-.67.01,3.6-4.23,6.41-5.03,8.36-4.92,3.13.18,4.63,2.71,9.65,4.01,2.43.63,4.55.67,5.96.61Z"/>
    <path class="cls-5" d="M90.47,82.04c-.17.21-.77.94-1.76,1.86-2.49,2.31-7.47,5.8-14.21,5.1-6.81-.71-12.67-5.39-15-12,1.85-.55,4.6-1.31,8-2,6.99-1.42,10.48-2.13,14-1,1.46.46,4.95,1.87,8.1,6.56-.94-.36-1.6-.62-1.72-.67-.71-.27-1.55-.53-2.57-.74-.3-.06-.62-.11-.95-.17-1.54-.24-3.41-.37-5.73-.33-.94.03-1.96.08-3.06.17-1.3.1-2.73.27-4.28.48,1.6-.1,3.08-.12,4.45-.1,1.2.02,2.31.07,3.35.16,1.81.15,3.38.41,4.73.7.42.09.81.19,1.19.29.49.12.94.26,1.37.39,1.15.35,2.42.81,4.09,1.3Z"/>
    <path class="cls-5" d="M101.44,94.43c-.06.45-.13.87-.21,1.27-1.04,5.52-3.03,7.52-4.73,8.3-1.39.64-2.51.42-7,1-2.58.34-4.67.73-6,1,.3-1.66.87-4.14,2-7,1.87-4.75,3.15-8.01,6-9,2.71-.95,5.67.57,7.66,2,.7.51,1.28,1,1.69,1.36-.49.18-1.01.37-1.58.59-.9.36-1.91.78-3.07,1.31-2.93,1.34-5.19,2.79-6.65,3.8,1.01-.54,2.6-1.35,4.59-2.19,1.79-.76,4.81-1.7,6.73-2.27.21-.06.4-.12.57-.17Z"/>
    <path class="cls-5" d="M80.04,96.45c-5.18,6.54-12.99,9.25-19.21,7-4.14-1.51-6.47-4.81-7.47-6.49,2.51-.22,5.54-.68,8.9-1.63,5.31-1.51,7.37-3.1,10.84-2.77,1.92.18,4.06.93,6.33,2.72-1.43.01-3.1.16-5.09.47-.93.16-1.93.35-3.01.6-1.27.28-2.66.65-4.17,1.07,1.57-.32,3.03-.55,4.39-.72,1.19-.15,2.3-.25,3.34-.31,1.82-.11,3.41-.07,4.78.03.13.01.25.02.37.03Z"/>
  </g>
  <g id="binding">
    <path class="cls-4" d="M221.98,136.01c-2.52,1.22-5.04,2.44-7.56,3.66-1.17.57-2.33,1.13-3.5,1.69-24.34,11.8-48.69,23.58-73.03,35.37-.38.17-.79.27-1.2.27h-22.38c-.41,0-.82-.1-1.2-.27-24.78-12.01-49.57-24-74.35-36-.73-.36-1.45-.71-2.18-1.06-2.52-1.22-5.04-2.44-7.56-3.66-3.04-1.46-1.1-5.93,2.1-4.84.66.22,1.38.49,2.15.78.82.32,1.7.68,2.64,1.08.51.22,1.04.45,1.59.69.33.14.66.29,1,.44,3.18,1.42,6.85,3.15,10.85,5.06,1.28.61,2.59,1.24,3.93,1.89,10.13,4.88,21.86,10.58,32.9,15.23,1.94.82,3.86,1.61,5.75,2.35,4.67,1.85,9.14,3.43,13.22,4.6,1.4.41,2.76.76,4.06,1.06h0c.61.14,1.2.27,1.79.38,1.1.22,2.16.39,3.16.5.98.12,1.89.2,2.77.22h.01c.46,0,.9,0,1.33-.01.54-.01,1.06-.06,1.55-.12.23-.03.45-.07.66-.11.38-.07.74-.16,1.08-.26,1.23-.37,2.24-.94,3-1.73.34-.35.62-.76.85-1.22.03-.05.06-.11.08-.17.02.06.05.12.08.17.23.46.51.87.85,1.22,1.1,1.14,2.71,1.82,4.74,2.09,1.15.16,2.44.19,3.86.1.52-.04,1.06-.08,1.62-.16.06,0,.12-.01.18-.02,1-.11,2.06-.28,3.16-.5.59-.11,1.19-.24,1.8-.38,1.29-.3,2.64-.65,4.04-1.05h.02c4.07-1.18,8.54-2.75,13.21-4.6,1.88-.74,3.79-1.52,5.72-2.33,11.07-4.66,22.82-10.38,32.96-15.26h.01c1.34-.65,2.63-1.28,3.91-1.89,3.99-1.91,7.66-3.64,10.84-5.06.34-.15.67-.3,1-.44.55-.24,1.08-.47,1.59-.69.49-.2.96-.4,1.41-.58,1.25-.51,2.38-.94,3.38-1.28,3.2-1.09,5.14,3.38,2.1,4.84Z"/>
    <path class="cls-5" d="M193.4,153.85c.14.45.32,1.26.1,2.15-1.23,4.93-12.3,2.36-20.5,8.5-7.65,5.73-6.66,14.45-12.06,15.34-3.65.6-7.25-2.88-9.57-5.64-4.49,2.18-8.99,4.35-13.48,6.53-.38.17-.79.27-1.2.27h-22.38c-.41,0-.82-.1-1.2-.27-4.71-2.28-9.43-4.57-14.14-6.85-2.75,3.22-6.65,6.87-10.24,6.06-4.76-1.08-3.39-8.74-9.73-14.44-8.21-7.37-20.99-3.97-22.5-9.5-.28-1.03-.07-1.99.14-2.62-5.96-2.88-11.92-5.76-17.88-8.65l18.79,30.02c4.42,7.08,12.18,11.38,20.52,11.38h93.94c8.34,0,16.1-4.3,20.52-11.38l18.39-29.39c-5.84,2.83-11.68,5.66-17.52,8.49ZM70.5,181.5c-4.69,0-8.5-3.81-8.5-8.5s3.81-8.5,8.5-8.5,8.5,3.81,8.5,8.5-3.81,8.5-8.5,8.5ZM180.5,181.5c-4.69,0-8.5-3.81-8.5-8.5s3.81-8.5,8.5-8.5,8.5,3.81,8.5,8.5-3.81,8.5-8.5,8.5Z"/>
    <circle class="cls-3" cx="90.5" cy="173" r="4"/>
    <circle class="cls-3" cx="70.5" cy="173" r="7"/>
    <circle class="cls-3" cx="180.5" cy="173" r="7"/>
    <circle class="cls-3" cx="60.5" cy="155" r="2"/>
    <circle class="cls-3" cx="189.5" cy="155" r="2"/>
    <circle class="cls-3" cx="159.5" cy="173" r="4"/>
  </g>
  <g id="Text">
    <text class="cls-2" transform="translate(21.62 213.89)"><tspan class="cls-8" x="0" y="0">Book</tspan><tspan class="cls-1" x="83.05" y="0">Bonsaii</tspan></text>
  </g>
</svg>