<?xml version="1.0" encoding="UTF-8"?>
<svg id="Layer_1" data-name="Layer 1" xmlns="http://www.w3.org/2000/svg" viewBox="0 0 111.75 124.17">
  <defs>
    <style>
      .cls-1 {
        fill: none;
        stroke: #000;
        stroke-linecap: round;
        stroke-linejoin: round;
        stroke-width: 12.42px;
      }

      .cls-2 {
        isolation: isolate;
        opacity: .16;
        stroke-width: 0px;
      }
    </style>
  </defs>
  <path class="cls-2" d="M31.04,117.96h49.67c3.29,0,6.45-1.31,8.78-3.64,2.33-2.33,3.64-5.49,3.64-8.78V31.04H18.63v74.5c0,3.29,1.31,6.45,3.64,8.78,2.33,2.33,5.49,3.64,8.78,3.64Z"/>
  <path class="cls-1" d="M68.29,55.88v37.25M43.46,55.88v37.25M18.63,31.04v74.5c0,3.29,1.31,6.45,3.64,8.78,2.33,2.33,5.49,3.64,8.78,3.64h49.67c3.29,0,6.45-1.31,8.78-3.64,2.33-2.33,3.64-5.49,3.64-8.78V31.04M6.21,31.04h99.33M24.83,31.04l12.42-24.83h37.25l12.42,24.83"/>
</svg>